Coordinates
version=1
nRows=13
nColumns=38
inDegrees=no

Units are S.I. units (second, meters, Newtons, ...)
If the header above contains a line with 'inDegrees', this indicates whether rotational values are in degrees (yes) or radians (no).

endheader
time	pelvis_tilt	pelvis_list	pelvis_rotation	pelvis_tx	pelvis_ty	pelvis_tz	hip_flexion_r	hip_adduction_r	hip_rotation_r	knee_angle_r	ankle_angle_r	subtalar_angle_r	mtp_angle_r	hip_flexion_l	hip_adduction_l	hip_rotation_l	knee_angle_l	ankle_angle_l	subtalar_angle_l	mtp_angle_l	lumbar_extension	lumbar_bending	lumbar_rotation	arm_flex_r	arm_add_r	arm_rot_r	elbow_flex_r	pro_sup_r	wrist_flex_r	wrist_dev_r	arm_flex_l	arm_add_l	arm_rot_l	elbow_flex_l	pro_sup_l	wrist_flex_l	wrist_dev_l
1.31	-0.0897011	1.489	-1.28617	0.688277	0.0660252	1.02824	0.265819	0.0828973	0.300304	0.341552	-0.198153	0	0	-0.387324	-0.116344	-0.332045	0.520937	-0.204758	0	0	-0.39551	0.0666673	0.123647	0.0186349	-0.549255	0.813087	0.789936	0.647169	0	0	0.172439	-0.291385	0.74944	0.480676	0.631035	0	0
1.32	-0.115133	1.48355	-1.26032	0.689213	0.0520915	1.02845	0.25239	0.0875239	0.295916	0.343293	-0.214963	0	0	-0.388803	-0.128198	-0.330351	0.548117	-0.22583	0	0	-0.395253	0.0704736	0.124021	0.0164429	-0.545174	0.817215	0.783118	0.6473	0	0	0.167496	-0.289015	0.745793	0.474134	0.633479	0	0
1.33	-0.141584	1.47697	-1.23436	0.690012	0.0382208	1.02915	0.239781	0.0928855	0.28831	0.351119	-0.230058	0	0	-0.388248	-0.141615	-0.330123	0.580059	-0.250889	0	0	-0.396364	0.074709	0.125559	0.0149531	-0.541622	0.821884	0.776675	0.646504	0	0	0.163309	-0.286104	0.742286	0.46703	0.636955	0	0
1.34	-0.16817	1.46967	-1.20925	0.690616	0.0245863	1.03034	0.229823	0.0995543	0.279782	0.368872	-0.240858	0	0	-0.384812	-0.156532	-0.331112	0.616931	-0.280343	0	0	-0.399114	0.0790704	0.128408	0.0145941	-0.538652	0.827174	0.770627	0.644487	0	0	0.160364	-0.282771	0.738904	0.459795	0.641252	0	0
1.35	-0.191305	1.46243	-1.18856	0.69105	0.0112671	1.03187	0.222603	0.106789	0.270818	0.394853	-0.24648	0	0	-0.377554	-0.17227	-0.332947	0.658662	-0.314505	0	0	-0.403055	0.0828918	0.132303	0.0156926	-0.536068	0.833548	0.764483	0.641089	0	0	0.158534	-0.279181	0.735003	0.452653	0.646122	0	0
1.36	-0.206852	1.45595	-1.17605	0.691359	-0.00181611	1.03355	0.216315	0.11315	0.260453	0.420318	-0.250226	0	0	-0.366309	-0.188256	-0.335609	0.704616	-0.35481	0	0	-0.407032	0.0854914	0.13654	0.0180963	-0.533465	0.841865	0.75781	0.636264	0	0	0.157194	-0.275653	0.730265	0.445833	0.652281	0	0
1.37	-0.208243	1.44863	-1.17722	0.6917	-0.0146202	1.03557	0.205551	0.117154	0.246486	0.437212	-0.254595	0	0	-0.354204	-0.203082	-0.335285	0.751608	-0.391766	0	0	-0.413149	0.0869933	0.140113	0.0213074	-0.531175	0.850303	0.751785	0.631453	0	0	0.156674	-0.273005	0.726277	0.440542	0.658227	0	0
1.38	-0.194144	1.43908	-1.19277	0.692192	-0.0271764	1.03804	0.187229	0.118746	0.227608	0.44363	-0.260448	0	0	-0.343404	-0.216961	-0.33292	0.798086	-0.432405	0	0	-0.422337	0.0878997	0.142286	0.0257715	-0.530224	0.86098	0.747633	0.623881	0	0	0.156479	-0.27135	0.72165	0.437209	0.665314	0	0
1.39	-0.168252	1.42905	-1.21955	0.692736	-0.0393754	1.04067	0.164894	0.11777	0.206	0.444015	-0.26563	0	0	-0.332242	-0.228122	-0.327218	0.843865	-0.462684	0	0	-0.432989	0.0872962	0.143988	0.0296113	-0.530239	0.86982	0.745749	0.616763	0	0	0.15714	-0.271582	0.719752	0.436829	0.668999	0	0
1.4	-0.135181	1.41947	-1.25383	0.693194	-0.0511368	1.04331	0.141669	0.114922	0.183872	0.44281	-0.269729	0	0	-0.319631	-0.236092	-0.319632	0.887862	-0.489829	0	0	-0.443919	0.0848324	0.145591	0.0337936	-0.531355	0.878763	0.74595	0.607876	0	0	0.158647	-0.273342	0.72094	0.438601	0.669143	0	0
1.41	-0.100661	1.41027	-1.28962	0.693556	-0.0625501	1.04595	0.118453	0.111485	0.164631	0.441925	-0.271401	0	0	-0.305677	-0.241455	-0.310154	0.929171	-0.50906	0	0	-0.454487	0.0811501	0.147607	0.0371953	-0.532583	0.88537	0.747115	0.600234	0	0	0.161533	-0.276177	0.726906	0.44135	0.664731	0	0
1.42	-0.0682726	1.40171	-1.32338	0.693872	-0.0735889	1.04855	0.0961406	0.107922	0.149277	0.441056	-0.271879	0	0	-0.29035	-0.244773	-0.299608	0.967898	-0.514554	0	0	-0.464544	0.0768357	0.15031	0.0397875	-0.534111	0.889531	0.749231	0.593611	0	0	0.165703	-0.279509	0.736243	0.44479	0.656857	0	0
1.43	-0.0402341	1.39361	-1.35282	0.694236	-0.0842662	1.05112	0.0746594	0.104549	0.137317	0.439652	-0.272211	0	0	-0.274283	-0.247056	-0.289384	1.0048	-0.500956	0	0	-0.474331	0.0727177	0.153414	0.0421774	-0.536385	0.892288	0.752538	0.58658	0	0	0.17078	-0.282845	0.747669	0.448707	0.646589	0	0
